<?xml version="1.0" encoding="utf-8"?>
<!-- Generator: Adobe Illustrator 29.8.1, SVG Export Plug-In . SVG Version: 9.03 Build 0)  -->
<svg version="1.1" id="Layer_1" xmlns="http://www.w3.org/2000/svg" xmlns:xlink="http://www.w3.org/1999/xlink" x="0px" y="0px"
	 viewBox="0 0 190 34" style="enable-background:new 0 0 190 34;" xml:space="preserve">
<style type="text/css">
	.st0{fill-rule:evenodd;clip-rule:evenodd;fill:#231F20;}
</style>
<path class="st0" d="M29,10.8c-2.2-2-5.3-2.9-9.3-2.9c-3.9,0-7,0.9-9.2,2.9c-2.1,1.8-3.2,4.1-3.2,7c0,3,1.1,5.3,3.2,7.1
	c2.3,2,5.3,3,9.2,3c4.1,0,7.3-1.1,9.4-3.2l3.7,3.9c-3.2,3-7.7,4.6-13.4,4.6c-5.7,0-10.2-1.5-13.5-4.6C3,25.9,1.5,22.2,1.5,17.6
	C1.5,13.1,3,9.5,6,6.7c3.2-3.1,7.7-4.6,13.5-4.6c5.5,0,9.7,1.4,12.9,4.1L29,10.8L29,10.8z"/>
<path class="st0" d="M42.8,25c2.2,2,5.2,3,9.1,3c3.9,0,7-1,9.3-3c2.1-1.8,3.1-4.2,3.1-7.1c0-2.9-1.1-5.2-3.1-7
	c-2.2-2-5.3-2.9-9.3-2.9c-3.9,0-7,0.9-9.1,2.9c-2.1,1.8-3.1,4.1-3.1,7C39.7,20.8,40.8,23.2,42.8,25L42.8,25z M51.7,2.1
	c5.7,0,10.2,1.5,13.5,4.6c2.9,2.8,4.4,6.4,4.4,10.9c0,4.6-1.5,8.2-4.4,11.1c-3.3,3-7.9,4.6-13.5,4.6c-5.7,0-10.2-1.5-13.5-4.6
	c-3-2.8-4.5-6.5-4.5-11.1c0-4.5,1.5-8.1,4.5-10.9C41.5,3.6,46,2.1,51.7,2.1L51.7,2.1z"/>
<polygon class="st0" points="130.6,3.1 104.6,3.1 104.6,8.7 114.9,8.7 114.9,32.3 120.5,32.3 120.5,8.7 130.6,8.7 130.6,3.1 "/>
<polygon class="st0" points="72.4,3.1 72.4,32.2 78.1,32.2 78.1,11.3 96.4,32.2 102.1,32.2 102.1,3.1 96.4,3.1 96.4,24 78.1,3.1 
	72.4,3.1 "/>
<polygon class="st0" points="182.5,3.1 173.2,14.3 164.5,3.1 158.3,3.1 170,18.1 158.5,32.2 164.6,32.2 173,22 181.2,32.2 
	187.3,32.2 176.2,18.1 188.5,3.1 182.5,3.1 "/>
<path class="st0" d="M135.3,21.2l5.6-11.5l5.6,11.5H135.3L135.3,21.2z M138.5,3.1l-14.1,29.1h5.6l2.6-5.5h16.5l2.6,5.5h5.6
	L143.2,3.1H138.5L138.5,3.1z"/>
</svg>
