<?xml version="1.0" encoding="UTF-8"?><svg id="svg8" xmlns="http://www.w3.org/2000/svg" viewBox="0 0 100.98 102.69"><defs><style>.cls-1{fill:#232527;}.cls-2{fill:#cf0a2c;}</style></defs><g id="layer1"><g id="g11533"><path id="path4250" class="cls-1" d="M31,85.67v9.6c0,2.73-1.35,4.18-3.81,4.18s-3.83-1.5-3.83-4.3v-9.47h-3.4v9.59c0,4.72,2.62,7.42,7.19,7.42s7.26-2.75,7.26-7.56v-9.46h-3.4ZM43.51,85.67l-7.39,16.76h3.47l1.43-3.25.1-.24h7.67l1.5,3.49h3.57l-7.32-16.66-.07-.1h-2.97ZM63.73,85.67l-3.81,11.53-3.7-11.52h-3.62l5.84,16.76h2.82l3.81-11.01,3.81,11.01h2.84l5.83-16.76h-3.53l-3.71,11.52-3.81-11.53h-2.77ZM97.01,85.67v16.74h3.36v-16.74h-3.36ZM.76,85.68v16.76h3.4v-6.81h7.68v6.81h3.4v-16.76h-3.4v6.76h-7.68v-6.76H.76ZM80.3,85.69v16.74h12.66v-3.05h-9.3v-4.15h6.19v-3.05h-6.19v-3.43h8.98v-3.05h-12.34ZM44.96,89.92l2.43,5.61h0l.16.39h-5.14l.16-.39h0l2.4-5.61Z"/><path id="path4252" class="cls-2" d="M43.12,0c-1.35.12-5,.95-5,.95h0c-8.22,2.12-10.16,9.58-10.16,9.58-.4,1.25-.58,2.54-.64,3.75v1.65c.11,2.55.68,4.45.68,4.45,2.75,12.17,16.24,32.17,19.14,36.37.21.2.37.13.37.13.31-.09.29-.39.29-.39h0C52.28,11.84,43.12,0,43.12,0h0ZM57.88,0s-9.2,11.84-4.73,56.53h0c.03.28.24.34.24.34.3.12.45-.17.45-.17h0c2.98-4.31,16.4-24.2,19.13-36.32,0,0,1.48-5.87.05-9.85,0,0-2.03-7.57-10.26-9.57,0,0-2.37-.6-4.89-.96h0ZM15.46,13.41s-7.83,7.43-8.22,15.31h0v1.19c0,.09.01.18.02.27.34,6.35,5.12,10.11,5.12,10.11,7.7,7.51,26.35,16.98,30.68,19.13.06.02.28.1.42-.07,0,0,.07-.05.1-.15v-.2s0-.02-.01-.04h0C31.69,33.06,15.46,13.41,15.46,13.41h0ZM85.52,13.41s-16.18,19.59-28.04,45.46h0s-.14.3.09.49c0,0,.07.05.16.07h.16s.06-.02.09-.04h0c4.45-2.21,22.95-11.62,30.62-19.09,0,0,4.85-3.9,5.11-10.16.56-8.69-8.19-16.74-8.19-16.74h0ZM100.09,39.14s-26.38,14.16-40.03,23.36h0s0,0,0,0c0,0-.25.16-.16.45,0,0,.13.23.32.23h0c4.89.01,23.38.03,23.84-.06,0,0,2.39-.1,5.35-1.23,0,0,6.58-2.09,9.99-9.56,0,0,1.56-3.12,1.58-7.51v-.19c-.01-1.69-.25-3.56-.9-5.51h0ZM.89,39.21c-2.4,7.43.83,13.42.84,13.43,3.37,7.12,9.8,9.27,9.8,9.27,2.97,1.22,5.94,1.3,5.94,1.3.46.08,18.46,0,23.28-.01.2,0,.32-.21.32-.21.01-.02.03-.05.03-.07v-.19c-.04-.12-.15-.21-.15-.21h0C27.31,53.33.89,39.21.89,39.21h0ZM40.19,65.48l-31.04,1.09c3.37,6,9.03,10.66,14.94,9.23,4.08-1.02,13.31-7.46,16.35-9.63h-.01c.24-.22.15-.39.15-.39-.08-.28-.4-.28-.4-.28h0ZM60.75,65.51h0s-.27.05-.35.25c0,0-.07.28.12.42h0c2.97,2.13,11.98,8.43,16.32,9.65,0,0,.66.22,1.76.26h.66c2.91-.1,7.97-1.6,12.58-9.5l-31.08-1.08Z"/></g></g></svg>