<?xml version="1.0" encoding="UTF-8" standalone="no"?>
<svg xmlns="http://www.w3.org/2000/svg" xml:space="preserve" width="1000" height="905" overflow="visible" viewBox="0 0 1000 904.99998">
  <path fill="#fab617" fill-rule="evenodd" d="M1000 905.00001V0H0v905.00001h1000z"/>
  <path fill="#e30613" d="M837.16909 124.42606H621.03385c-19.39675 0-32.55883 9.04373-48.49188 22.95715L213.00931 453.47845c-2.07822 2.08702-2.07822 3.47836-2.07822 6.26104 0 2.08702.69274 4.17403 2.07822 6.26104l369.23104 310.26928c10.39112 8.34805 24.24594 13.91342 38.7935 13.91342h215.4425c27.0169 0 48.49188-21.5658 48.49188-48.69697V173.8187c0-26.43549-21.47498-49.39264-47.79914-49.39264z"/>
  <path fill="#e30613" d="M197.76901 484.08798c-4.15645-6.26104-11.08386-15.30476-11.08386-24.34849 0-6.95671 2.07822-13.91342 5.54193-19.47878l209.20783-290.79049c2.07822-2.08701 2.07822-5.56537 2.07822-9.04372 0-9.04373-6.92741-16.00044-15.93305-16.00044H170.7521c-26.32416 0-47.79913 22.95715-47.79913 49.39264v567.66756c0 27.13117 21.47497 48.69697 47.79913 48.69697h216.82798c9.00564 0 15.93305-6.95671 15.93305-16.00043 0-3.47836-1.38548-6.95672-2.77096-10.43507L197.76901 484.08798z" class="st0"/>
  <path fill="#fab617" d="M774.125 296.93749c-29.78787 0-46.40625 14.627-46.40625 41.0625 0 27.13117 16.61838 43.125 46.40625 43.125s46.40625-15.29816 46.40625-43.125c0-26.4355-16.61838-41.0625-46.40625-41.0625zm0 19.5c15.93304 0 23.5625 6.9534 23.5625 21.5625 0 16.6961-7.62946 23.65625-23.5625 23.65625-15.93305 0-22.86976-7.65582-23.5625-23.65625 0-15.30477 7.62945-21.5625 23.5625-21.5625zm-41.5625 99.46875v82.09375h45.71875c26.32417 0 40.1875-13.92316 40.1875-41.75 0-27.13117-12.47785-40.34375-40.1875-40.34375H732.5625zm22.875 20.1875h22.84375c11.7766 0 17.3125 5.54716 17.3125 20.15625s-5.5359 22.28125-17.3125 22.28125H755.4375v-42.4375zm-22.87232-254.62265h22.86046v33.39221l33.25157-33.39221h31.86609l-40.87172 40.34892 42.94995 40.34891h-32.55884l-33.94431-33.3922v33.3922h-23.5532v-80.69783zm56.11203 551.66711-33.94432-33.3922v33.3922h-22.16771v-80.69783h22.86046v33.39221l33.25157-33.39221h30.48061l-39.48624 40.34892 42.94995 40.34891h-33.94432zm-27.70846-199.66946-34.625 82.09375h24.21875l5.5625-13.90625h36.71875l5.53125 13.90625h24.9375l-34.625-82.09375h-27.71875zm13.15625 21.5625 11.78125 28.53125h-22.875l11.09375-28.53125z"/>
</svg>