<?xml version="1.0" encoding="UTF-8" standalone="no"?>
<svg
   xmlns:svg="http://www.w3.org/2000/svg"
   xmlns="http://www.w3.org/2000/svg"
   width="563"
   height="171"
   version="1.1"
   id="svg1187">
  <title
     id="title5683">Mamiya logo</title>
  <g
     id="surface1175"
     transform="translate(0,-748.33335)">
    <g
       id="g5681"
       transform="matrix(1.0077664,0,0,1.0077664,-1.3200003,-10.622412)">
      <g
         id="g5692"
         transform="translate(0,34.182267)"
         style="fill:#fc001b;fill-opacity:1">
        <path
           d="m 381.74649,747.35646 c 0,7.53655 -6.14325,13.67979 -13.6798,13.67979 -7.55767,0 -13.67979,-6.14324 -13.67979,-13.67979 0,-7.55768 6.12212,-13.6798 13.67979,-13.6798 7.53655,0 13.6798,6.12212 13.6798,13.6798"
           id="path488" />
        <path
           d="m 220.52334,768.19282 h -20.8575 v 9.60539 c -5.48878,-6.31208 -12.96198,-9.60539 -21.89189,-9.60539 -20.583,0 -36.71168,17.07866 -36.71168,38.865 0,20.73076 16.80422,38.27387 36.71168,38.27387 8.73989,0 16.33977,-3.39886 21.89189,-9.62653 v 9.26762 h 22.63078 v -76.77996 z m -38.63277,56.19696 c -9.81649,0 -17.79641,-8.001 -17.79641,-17.81754 0,-9.81649 7.97992,-17.79641 17.79641,-17.79641 9.81654,0 17.81754,7.97992 17.81754,17.79641 0,9.81654 -8.001,17.81754 -17.81754,17.81754"
           id="path490" />
        <path
           d="M 137.66347,842.88281 120.5426,742.58543 H 96.412982 L 77.518785,796.71349 58.624641,742.58543 H 34.494966 L 17.015253,844.97278 h 22.77853 l 9.647655,-59.36353 19.844122,59.3002 h 16.48758 l 19.82299,-59.3002 9.64766,59.36353 h 22.77853 l -0.35885,-2.08997"
           id="path492" />
        <path
           d="m 544.04628,768.19282 h -20.85744 v 9.60539 c -5.48883,-6.31208 -12.94096,-9.60539 -21.89194,-9.60539 -20.58301,0 -36.71161,17.07866 -36.71161,38.865 0,20.73076 16.82528,38.27387 36.71161,38.27387 8.73988,0 16.33977,-3.39886 21.89194,-9.62653 v 9.26762 h 22.65186 v -76.77996 z m -38.61164,56.19696 c -9.81654,0 -17.81754,-8.001 -17.81754,-17.81754 0,-9.81649 8.001,-17.79641 17.81754,-17.79641 9.81654,0 17.79641,7.97992 17.79641,17.79641 0,9.81654 -7.97987,17.81754 -17.79641,17.81754"
           id="path494" />
        <path
           d="m 344.33819,843.09396 v -49.31483 c 0,0 0,-1.70999 -0.12647,-1.70999 h -0.0632 c -0.78109,-14.14425 -11.04095,-23.87632 -25.52297,-23.87632 -9.18321,0 -16.4664,3.86326 -20.47746,10.74539 -4.5388,-6.77653 -12.26537,-10.74539 -21.30082,-10.74539 -7.6843,0 -15.22085,4.22216 -19.90746,10.63984 v -10.63984 h -22.6519 v 76.69555 h 22.6519 v -44.26936 c 0,-5.80548 4.72882,-10.5343 10.51317,-10.5343 5.55217,0 10.09097,4.32771 10.47095,9.77433 l 0.0216,45.02933 h 23.51741 v -49.92703 c 1.92109,-2.99775 5.25661,-4.87663 8.8243,-4.87663 5.80548,0 10.5343,4.66548 10.5343,10.38654 v 44.41712 H 344.339 v -1.79441"
           id="path496" />
        <path
           d="m 379.36095,769.98723 v 74.90114 H 356.7091 v -76.69555 h 22.65185 v 1.79441"
           id="path498" />
        <path
           d="m 469.33517,768.27729 h -22.79965 l -19.75971,41.14494 -17.12086,-41.14494 h -25.6496 l 29.23848,69.43338 -17.94422,37.09166 h 25.67073 l 51.21482,-106.52504 h -2.84999"
           id="path500" />
      </g>
    </g>
  </g>
</svg>