<?xml version="1.0" encoding="UTF-8" standalone="no"?>
<svg
   xmlns:dc="http://purl.org/dc/elements/1.1/"
   xmlns:cc="http://creativecommons.org/ns#"
   xmlns:rdf="http://www.w3.org/1999/02/22-rdf-syntax-ns#"
   xmlns:svg="http://www.w3.org/2000/svg"
   xmlns="http://www.w3.org/2000/svg"
   version="1.1"
   id="svg833"
   width="1649.2297"
   height="359.1875"
   viewBox="0 0 1649.2297 359.1875">
  <metadata
     id="metadata839">
    <rdf:RDF>
      <cc:Work
         rdf:about="">
        <dc:format>image/svg+xml</dc:format>
        <dc:type
           rdf:resource="http://purl.org/dc/dcmitype/StillImage" />
        <dc:title></dc:title>
      </cc:Work>
    </rdf:RDF>
  </metadata>
  <defs
     id="defs837" />
  <g
     id="g841"
     transform="translate(-750.01953,206.10547)">
    <path
       id="path1486"
       style="fill:#000000;fill-opacity:1;stroke:#ff0606;stroke-width:0;stroke-linejoin:round;stop-color:#000000"
       d="M 927.90234,-206.10547 A 177.88354,179.59398 0 0 0 750.01953,-26.511719 177.88354,179.59398 0 0 0 927.90234,153.08203 177.88354,179.59398 0 0 0 1105.7852,-26.511719 177.88354,179.59398 0 0 0 927.90234,-206.10547 Z m -0.85546,81.24414 a 97.493881,97.493881 0 0 1 97.49412,97.494142 97.493881,97.493881 0 0 1 -97.49412,97.494141 97.493881,97.493881 0 0 1 -97.49415,-97.494141 97.493881,97.493881 0 0 1 97.49415,-97.494142 z" />
    <g
       id="g869">
      <text
         xml:space="preserve"
         style="font-style:normal;font-variant:normal;font-weight:bold;font-stretch:normal;font-size:194.948px;line-height:125%;font-family:'Nimbus Sans L';-inkscape-font-specification:'Nimbus Sans L, Bold';font-variant-ligatures:normal;font-variant-caps:normal;font-variant-numeric:normal;font-variant-east-asian:normal;letter-spacing:0px;word-spacing:0px;writing-mode:lr-tb;fill:#000000;fill-opacity:1;stroke:#000000;stroke-width:1.03696px;stroke-linecap:butt;stroke-linejoin:miter;stroke-opacity:1"
         x="1455.8397"
         y="-55.192589"
         id="text851"
         transform="scale(1.0371107,0.96421722)"><tspan
           x="1455.8397"
           y="-55.192589"
           id="tspan853"
           style="stroke-width:1.03696px">Digital</tspan></text>
      <text
         xml:space="preserve"
         style="font-style:normal;font-variant:normal;font-weight:bold;font-stretch:normal;font-size:191.726px;line-height:125%;font-family:'Nimbus Sans L';-inkscape-font-specification:'Nimbus Sans L, Bold';font-variant-ligatures:normal;font-variant-caps:normal;font-variant-numeric:normal;font-variant-east-asian:normal;letter-spacing:0px;word-spacing:0px;writing-mode:lr-tb;fill:#000000;fill-opacity:1;stroke:#000000;stroke-width:1.01982px;stroke-linecap:butt;stroke-linejoin:miter;stroke-opacity:1"
         x="1484.824"
         y="140.61996"
         id="text859"
         transform="scale(1.0198728,0.98051443)"><tspan
           x="1484.824"
           y="140.61996"
           id="tspan857"
           style="stroke-width:1.01982px">Solutions</tspan></text>
    </g>
    <text
       xml:space="preserve"
       style="font-size:85.3333px;line-height:125%;font-family:'Nimbus Sans L';-inkscape-font-specification:'Nimbus Sans L';letter-spacing:0px;word-spacing:0px;writing-mode:lr-tb;fill:none;stroke:#000000;stroke-width:1px;stroke-linecap:butt;stroke-linejoin:miter;stroke-opacity:1"
       x="775.25671"
       y="-181.41731"
       id="text873"><tspan
         id="tspan871"
         x="775.25671"
         y="-181.41731"
         style="font-style:normal;font-variant:normal;font-weight:bold;font-stretch:normal;font-size:192px;font-family:'Nimbus Sans L';-inkscape-font-specification:'Nimbus Sans L Bold';fill:#000000;fill-opacity:1" /></text>
    <path
       style="fill:#000000;stroke-width:0.74931"
       d="m 1099.4566,-132.42785 v -60.8102 l 51.1245,-0.18109 51.1244,-0.18109 1.14,2.20449 c 0.627,1.21246 1.14,2.69968 1.14,3.30493 74.1336,180.55882 -1.14,-3.30493 74.1336,180.55882 76.4592,-184.5821 0,0 74.9873,-181.2102 0.5032,-1.23636 1.1657,-2.75371 1.4719,-3.3719 0.487,-0.98263 6.9784,-1.12396 51.6258,-1.12396 h 51.0688 l -0.011,164.09913 c 0,90.25454 -0.011,164.52063 -0.011,165.03579 -10e-5,0.73762 -8.5014,0.93664 -40.0082,0.93664 -35.4986,0 -40.0584,-0.13132 -40.455,-1.16506 -0.6388,-1.66475 -0.4632,-162.20342 0.1847,-168.76269 0.5606,-5.67668 -0.017,-8.24479 -1.3851,-6.16037 -0.4058,0.61818 -0.7688,1.46116 -0.8068,1.87328 -65.8563,174.21484 0.8068,-1.87328 -65.1252,172.15423 l -0.7311,2.06061 h -29.9297 c -16.4613,0 -30.4631,-0.20466 -31.1149,-0.45482 -0.6518,-0.25015 -0.5845,-0.23604 -1.1853,-2.10472 -66.6734,-174.09797 1.1853,2.10472 -63.6914,-168.54726 -1.3198,-4.05822 -2.2009,-5.69824 -2.982,-5.55071 -0.8491,0.16037 -1.0245,0.99718 -0.7493,3.57396 0.1977,1.85052 0.3595,41.46704 0.3595,88.03673 v 84.67216 l -40.3087,0.19386 -40.3089,0.19385 0.2207,-60.2548 c 0.2224,-269.82981 0.2014,-133.706449 0.2224,-209.01961 z"
       id="path845-6" />
  </g>
</svg>
