<?xml version="1.0" standalone="no"?>
<!DOCTYPE svg PUBLIC "-//W3C//DTD SVG 20010904//EN"
 "http://www.w3.org/TR/2001/REC-SVG-20010904/DTD/svg10.dtd">
<svg version="1.0" xmlns="http://www.w3.org/2000/svg"
 width="3264.000000pt" height="814.000000pt" viewBox="0 0 3264.000000 814.000000"
 preserveAspectRatio="xMidYMid meet">

<g transform="translate(0.000000,814.000000) scale(0.100000,-0.100000)"
fill="#000000" stroke="none">
<path d="M455 7722 c-11 -2 -26 -9 -32 -14 -10 -8 -13 -747 -13 -3633 0 -3496
1 -3622 18 -3638 17 -16 80 -17 695 -17 659 0 678 1 697 20 19 19 19 52 20
2937 0 2753 1 2919 17 2931 14 10 255 12 1198 11 649 -1 1212 -5 1250 -9 89
-11 254 -59 325 -95 149 -76 303 -205 407 -343 31 -41 78 -124 107 -190 71
-156 91 -260 90 -452 -1 -191 -23 -288 -104 -453 -126 -258 -314 -431 -581
-535 -195 -75 -142 -72 -1236 -72 -763 0 -983 -3 -1003 -13 -25 -12 -25 -14
-28 -156 -3 -165 -9 -149 107 -284 76 -88 120 -141 196 -234 155 -188 329
-396 375 -448 30 -33 114 -132 185 -220 264 -322 312 -379 427 -510 25 -27 81
-95 125 -150 45 -55 95 -114 111 -131 17 -18 43 -49 59 -71 16 -22 48 -62 71
-89 93 -108 228 -269 251 -298 14 -17 45 -54 70 -82 25 -28 114 -133 196 -234
83 -102 170 -207 195 -235 25 -27 66 -75 90 -105 25 -30 49 -60 55 -66 5 -6
35 -41 65 -79 30 -37 75 -91 100 -120 25 -28 74 -86 109 -129 47 -56 74 -79
100 -87 24 -6 316 -9 865 -7 773 3 830 4 840 20 9 15 3 26 -35 65 -25 27 -74
82 -109 123 -35 41 -94 110 -133 153 -38 42 -82 93 -96 111 -14 19 -65 79
-113 133 -48 54 -145 166 -216 249 -137 162 -247 288 -407 468 -55 62 -152
175 -215 250 -63 76 -162 190 -220 255 -140 157 -159 177 -443 510 -102 118
-130 158 -125 173 3 7 95 40 204 72 240 72 456 162 599 251 245 152 359 247
527 437 127 145 135 154 227 297 263 410 398 986 351 1496 -18 193 -66 432
-111 555 -12 30 -29 80 -38 110 -72 223 -294 582 -486 785 -127 134 -176 181
-230 220 -33 24 -67 52 -76 62 -20 21 -175 126 -274 185 -87 52 -298 149 -408
188 -103 36 -369 104 -473 121 -62 10 -516 13 -2089 14 -1105 1 -2019 -1
-2030 -3z"/>
<path d="M14739 7716 l-24 -12 -6 -999 c-3 -550 -3 -2181 -1 -3625 l3 -2625
21 -18 c20 -17 98 -17 1567 -14 1611 3 1627 4 1906 48 232 37 370 71 640 161
289 97 668 292 897 463 44 33 97 71 117 85 129 87 495 439 621 599 113 143
370 530 370 557 0 5 19 43 43 84 23 41 49 91 57 110 7 19 33 78 58 130 92 199
171 471 241 830 61 313 59 864 -3 1190 -38 199 -88 404 -119 490 -18 52 -40
118 -47 145 -7 28 -35 95 -60 150 -26 55 -53 116 -60 135 -54 143 -280 518
-428 710 -198 256 -544 586 -778 740 -29 20 -64 46 -77 58 -13 12 -27 22 -31
22 -4 0 -19 8 -34 18 -100 68 -155 99 -297 170 -347 174 -577 256 -930 332
-55 12 -116 25 -135 30 -19 5 -89 17 -155 26 -110 16 -259 18 -1726 20 -1236
2 -1611 0 -1630 -10z m3231 -1425 c259 -48 329 -69 525 -154 184 -79 379 -192
485 -279 222 -182 457 -433 515 -548 10 -19 34 -60 55 -90 87 -131 228 -478
259 -640 86 -449 62 -863 -73 -1247 -38 -110 -142 -332 -186 -398 -172 -259
-206 -302 -365 -455 -186 -179 -333 -284 -555 -395 -217 -109 -502 -198 -735
-230 -27 -4 -423 -9 -878 -12 -746 -4 -831 -3 -853 12 l-24 15 0 2216 0 2215
23 9 c13 6 343 8 857 6 803 -3 839 -4 950 -25z"/>
<path d="M7763 7622 c-13 -2 -30 -13 -38 -25 -13 -19 -15 -424 -15 -3577 l0
-3556 20 -22 21 -22 2807 0 c2489 1 2809 2 2827 16 20 15 20 27 20 693 0 560
-2 681 -14 694 -12 16 -172 17 -2112 17 -2086 0 -2099 0 -2119 20 -20 20 -20
33 -20 774 0 673 2 756 16 770 14 14 195 16 1842 16 1638 0 1830 2 1850 16
l22 15 0 613 c0 581 -1 614 -18 629 -17 16 -160 17 -1845 17 -1816 0 -1827 0
-1847 20 -20 20 -20 31 -18 737 l3 717 25 13 c20 10 451 13 2112 13 1147 0
2093 3 2102 6 9 3 18 23 21 47 3 23 5 331 3 684 -3 587 -4 644 -20 659 -16 16
-204 17 -2810 18 -1536 1 -2803 0 -2815 -2z"/>
<path d="M22310 7622 c-14 -2 -31 -11 -37 -20 -10 -13 -13 -745 -13 -3583 0
-3230 1 -3569 16 -3583 14 -14 90 -16 693 -16 569 0 680 2 697 14 19 14 19 50
21 2297 1 1256 5 2289 7 2296 13 34 43 7 211 -198 102 -123 170 -208 235 -293
27 -35 134 -165 305 -371 61 -73 135 -163 165 -200 30 -38 73 -90 95 -115 22
-26 69 -85 105 -130 36 -45 116 -143 178 -218 238 -290 313 -382 377 -462 52
-66 135 -163 185 -217 36 -39 74 -46 241 -41 144 4 151 7 229 108 25 32 101
124 170 205 69 81 139 164 155 185 17 21 59 75 95 120 36 45 86 109 112 142
26 33 64 79 85 102 21 23 61 71 88 105 28 35 70 87 95 116 25 28 77 91 115
140 39 48 86 106 106 129 20 23 52 60 70 83 433 537 654 804 673 815 39 22 38
60 37 -2289 -1 -1840 1 -2273 12 -2293 l13 -25 678 -3 c596 -2 682 0 703 13
l23 15 0 3564 c0 3450 -1 3565 -18 3587 l-19 22 -491 0 c-456 -1 -494 -2 -519
-19 -32 -20 -26 -13 -168 -185 -60 -73 -141 -168 -180 -212 -38 -43 -106 -123
-150 -177 -152 -187 -200 -245 -275 -334 -41 -49 -86 -103 -99 -120 -14 -17
-41 -49 -60 -72 -20 -23 -67 -79 -106 -124 -38 -46 -88 -104 -111 -129 -22
-25 -55 -66 -73 -91 -33 -47 -45 -61 -251 -303 -69 -81 -143 -169 -165 -196
-79 -96 -131 -159 -208 -252 -44 -52 -95 -114 -115 -138 -21 -25 -63 -74 -95
-110 -31 -36 -123 -146 -203 -243 -80 -98 -154 -183 -165 -188 -11 -6 -29 -8
-39 -5 -17 6 -108 106 -190 209 -13 17 -54 65 -90 107 -111 131 -144 170 -173
210 -16 22 -32 39 -37 39 -5 0 -19 17 -31 38 -13 20 -41 56 -62 79 -21 22 -50
57 -65 76 -45 59 -154 190 -181 218 -15 14 -51 57 -81 94 -30 37 -73 88 -96
114 -22 25 -61 71 -85 102 -59 75 -241 293 -504 603 -55 65 -111 133 -125 151
-14 18 -52 65 -85 105 -33 40 -73 90 -90 110 -16 21 -57 68 -90 106 -33 38
-86 101 -117 139 -31 39 -102 124 -157 190 -56 66 -101 122 -101 125 0 3 -21
23 -46 44 l-47 39 -476 1 c-262 1 -487 0 -501 -2z"/>
<path d="M30830 7622 c-14 -2 -31 -9 -37 -14 -10 -8 -13 -737 -13 -3584 0
-3234 1 -3574 16 -3588 14 -14 90 -16 687 -16 593 0 675 2 695 16 l22 15 0
3568 c0 3548 0 3568 -20 3586 -19 17 -59 18 -672 19 -359 1 -664 -1 -678 -2z"/>
</g>
</svg>
