<svg width="86" height="21" viewBox="0 0 86 21" fill="none" xmlns="http://www.w3.org/2000/svg">
<g clip-path="url(#clip0_182_919)">
<path d="M0 18.7382V14.8456H0.108859C2.54129 17.766 5.02628 19.549 7.75901 19.549C10.1652 19.549 11.9745 18.3065 11.9745 16.1707C11.9745 14.7668 11.0285 13.7382 8.70496 12.766L4.2455 10.8741C2.16216 9.98072 0.296547 8.52426 0.296547 6.03553C0.296547 3.54679 2.92042 0.900391 7.13589 0.900391C9.56832 0.900391 11.5165 1.65865 13.5961 2.81856V6.51976H13.4872C11.1637 3.82081 9.32432 2.25174 6.62162 2.25174C4.24174 2.25174 2.89039 3.82081 2.89039 5.27727C2.89039 6.54604 3.48348 7.54829 5.54054 8.38538L10.0826 10.251C13.217 11.5498 14.6772 12.98 14.6772 15.3035C14.6772 18.6819 11.4602 20.9004 7.62387 20.9004C4.86862 20.9004 2.51501 20.3073 0 18.7382Z" fill="#333333"/>
<path d="M17.5703 1.54978V1.44092H21.6769V1.54978C21.219 2.65713 21.0012 3.84707 21.0012 5.19843V16.6061C21.0012 17.9574 21.219 19.1474 21.6769 20.2547V20.3636H17.5703V20.2547C18.0283 19.1474 18.246 17.9574 18.246 16.6061V5.19843C18.246 3.84707 18.0283 2.65713 17.5703 1.54978Z" fill="#333333"/>
<path d="M24.41 10.9004C24.41 5.35985 28.8695 0.900391 34.3574 0.900391C37.0864 0.900391 39.3312 1.87261 41.0879 2.97997V6.84634H40.9791C38.8432 4.38763 37.0339 2.25174 33.8695 2.25174C30.2208 2.25174 27.5707 5.81781 27.5707 10.4162C27.5707 15.0145 30.2996 19.5528 35.112 19.5528C36.5722 19.5528 37.5969 19.0948 38.7606 18.1752V15.0933C38.7606 13.742 38.5429 12.552 38.0849 11.4447V11.3358H42.1915V11.4447C41.7336 12.552 41.5159 13.742 41.5159 15.0933V19.0385C39.5414 20.0933 37.0001 20.9041 34.4888 20.9041C28.7043 20.9041 24.4062 16.4447 24.4062 10.9041L24.41 10.9004Z" fill="#333333"/>
<path d="M53.1067 18.0926L47.5099 4.19993V16.6061C47.5099 17.9574 47.7276 19.1474 48.1855 20.2547V20.3636H45.1562V20.2547C45.6142 19.1474 45.8319 17.9574 45.8319 16.6061V5.19843C45.8319 3.84707 45.6142 2.65713 45.1562 1.54978V1.44092H49.3454C49.398 1.79377 49.5331 2.16915 49.6683 2.522L55.4002 16.9026L60.9408 2.522C61.0759 2.16915 61.2111 1.79377 61.2636 1.44092H65.3439V1.54978C64.886 2.65713 64.6683 3.84707 64.6683 5.19843V16.6061C64.6683 17.9574 64.886 19.1474 65.3439 20.2547V20.3636H61.2899V20.2547C61.7478 19.1474 61.9656 17.9574 61.9656 16.6061V4.14362L56.6427 18.0926C56.3462 18.8508 56.0759 19.6316 55.9145 20.3636H53.8875C53.6998 19.6354 53.3995 18.8508 53.1029 18.0926H53.1067Z" fill="#333333"/>
<path d="M69.2393 16.1706L73.9953 3.79074C74.427 2.68338 74.0779 2.0077 73.7513 1.54599V1.43713H77.4262C77.4788 1.81626 77.7228 2.57077 78.0493 3.38158L82.9405 16.1669C83.6424 17.9799 84.3444 19.3576 85.0201 20.2472V20.3561H80.478V20.2472C80.8571 18.8696 80.8309 18.085 80.0989 16.1931L79.4758 14.5452H71.5028L70.8797 16.1931C70.1514 18.085 70.1214 18.8696 70.5005 20.2472V20.3561H67.1484V20.2472C67.8241 19.3538 68.5261 17.9762 69.228 16.1669L69.2393 16.1706ZM78.9427 13.1976L75.4818 4.19614L72.0508 13.1976H78.9427Z" fill="#333333"/>
</g>
<defs>
<clipPath id="clip0_182_919">
<rect width="85.0263" height="20" fill="white" transform="translate(0 0.900391)"/>
</clipPath>
</defs>
</svg>
